# xmcd
# 
# Track frame offsets:
#     150
#     22715
#     65975
#     84010
#     100642
#     112847
#     130655
#     147722
#     165812
#     188452
#     217700
#     231445
#     254059
# 
# Disc length: 3627
# 
# Revision: 1
# Processed by: cddbd v1.5.2PL0 Copyright (c) Steve Scherf et al.
# Submitted via: BonkEnc v1.0.15
# 
DISCID=9e0e290d
DTITLE=Albert King - Albert King Gutar Special
DYEAR=1999
DGENRE=Blues
TTITLE0=Matchbox Blues
TTITLE1=Blues Power
TTITLE2=Night Stomp
TTITLE3=Can't You See What You're Doing To Me
TTITLE4=Lonely Man
TTITLE5=(I Think I'm) Drowning On Dry Land Pt.1
TTITLE6=Corrina Corrina
TTITLE7=Goin' Back To Iuka
TTITLE8=I'll Play The Blues For You
TTITLE9=Walking The Back Street And Cryin'
TTITLE10=Nice To Be Nice
TTITLE11=Bad Luck
TTITLE12=Finger On The Trigger
EXTD=
EXTT0=
EXTT1=
EXTT2=
EXTT3=
EXTT4=
EXTT5=
EXTT6=
EXTT7=
EXTT8=
EXTT9=
EXTT10=
EXTT11=
EXTT12=
PLAYORDER=
